<svg width="144" height="144" viewBox="0 0 144 144" fill="none" xmlns="http://www.w3.org/2000/svg">
<circle cx="72" cy="72" r="69.5" fill="white" stroke="white" stroke-width="5"/>
<path fill-rule="evenodd" clip-rule="evenodd" d="M57 31.6887C40.6481 37.7758 29 53.5276 29 72C29 90.4724 40.6481 106.224 57 112.311V106.925C43.4724 101.107 34 87.6597 34 72C34 56.3403 43.4724 42.893 57 37.0752V31.6887ZM87 106.925C100.528 101.107 110 87.6597 110 72C110 56.3403 100.528 42.893 87 37.0752V31.6887C103.352 37.7758 115 53.5276 115 72C115 90.4724 103.352 106.224 87 112.311V106.925Z" fill="#6C63FF"/>
<path fill-rule="evenodd" clip-rule="evenodd" d="M58.5493 30.1907L62.0706 29.851L60.4924 33.0172L54.42 45.1998L52.4768 42.3734L56.9711 33.3569L46.9431 34.3244L45 31.4979L58.5493 30.1907Z" fill="#6C63FF"/>
<path fill-rule="evenodd" clip-rule="evenodd" d="M85.5365 114.191L82.0357 114.701L83.459 111.462L88.9357 99L91.0132 101.729L86.9599 110.952L96.9293 109.501L99.0068 112.231L85.5365 114.191Z" fill="#6C63FF"/>
</svg>
