<svg width="144" height="144" viewBox="0 0 144 144" fill="none" xmlns="http://www.w3.org/2000/svg">
<path fill-rule="evenodd" clip-rule="evenodd" d="M72 144C111.765 144 144 111.765 144 72C144 32.2355 111.765 0 72 0C32.2355 0 0 32.2355 0 72C0 111.765 32.2355 144 72 144ZM62.0706 29.851L54.42 45.1998L52.4768 42.3734L54.5362 38.2418C42.3362 44.566 34 57.3095 34 72C34 87.6597 43.4724 101.107 57 106.925V112.311C40.6481 106.224 29 90.4724 29 72C29 55.3894 38.4184 40.9786 52.2062 33.8166L46.9431 34.3244L45 31.4979L62.0706 29.851ZM87 110.861L86.9599 110.952L87 110.947V110.861ZM91.6173 110.275C105.501 103.144 115 88.6814 115 72C115 53.5276 103.352 37.7758 87 31.6887V37.0752C100.528 42.893 110 56.3403 110 72C110 86.8049 101.534 99.6323 89.1782 105.905L91.0132 101.729L88.9357 99L82.0357 114.701L99.0068 112.231L96.9293 109.501L91.6173 110.275Z" fill="white"/>
</svg>
